<?xml version="1.0" standalone="no"?>
<!DOCTYPE svg PUBLIC "-//W3C//DTD SVG 20010904//EN"
 "http://www.w3.org/TR/2001/REC-SVG-20010904/DTD/svg10.dtd">
<svg version="1.0" xmlns="http://www.w3.org/2000/svg"
 width="480.000000pt" height="480.000000pt" viewBox="0 0 480.000000 480.000000"
 preserveAspectRatio="xMidYMid meet">
<metadata>
Created by potrace 1.11, written by Peter Selinger 2001-2013
</metadata>
<g transform="translate(0.000000,480.000000) scale(0.100000,-0.100000)"
fill="#000000" stroke="none">
<path d="M5 4788 c-3 -7 -4 -1086 -3 -2398 l3 -2385 2395 0 2395 0 0 2395 0
2395 -2393 3 c-1909 2 -2394 0 -2397 -10z m1330 -1305 c3 -10 172 -461 375
-1003 203 -542 373 -997 379 -1013 l11 -27 -242 2 -241 3 -76 225 -76 225
-381 3 -381 2 -80 -227 -80 -228 -233 -3 c-184 -2 -231 0 -228 10 3 7 178 471
389 1030 l384 1018 236 0 c216 0 237 -2 244 -17z m1612 -65 c17 -46 124 -361
239 -700 115 -339 212 -614 215 -610 6 6 393 1203 436 1345 l14 47 324 0 325
0 0 -1030 0 -1030 -215 0 -215 0 0 723 c0 397 -4 715 -9 707 -5 -8 -118 -333
-252 -723 l-244 -707 -179 2 -180 3 -245 704 -246 704 -5 -704 -5 -704 -212
-3 -213 -2 0 1030 0 1030 319 0 319 0 29 -82z m1733 -2313 l0 -75 -2285 0
-2285 0 0 75 0 75 2285 0 2285 0 0 -75z"/>
<path d="M957 2617 c-70 -199 -128 -365 -127 -369 0 -10 510 -10 510 -1 0 12
-243 717 -249 725 -4 4 -64 -155 -134 -355z"/>
</g>
</svg>
