<?xml version="1.0" standalone="no"?>
<!DOCTYPE svg PUBLIC "-//W3C//DTD SVG 20010904//EN"
 "http://www.w3.org/TR/2001/REC-SVG-20010904/DTD/svg10.dtd">
<svg version="1.0" xmlns="http://www.w3.org/2000/svg"
 width="480.000000pt" height="480.000000pt" viewBox="0 0 480.000000 480.000000"
 preserveAspectRatio="xMidYMid meet">
<metadata>
Created by potrace 1.11, written by Peter Selinger 2001-2013
</metadata>
<g transform="translate(0.000000,480.000000) scale(0.100000,-0.100000)"
fill="#000000" stroke="none">
<path d="M869 3502 c-9 -1 -29 -42 -49 -95 -18 -51 -38 -103 -43 -117 -6 -14
-11 -29 -13 -35 -3 -11 -91 -243 -135 -355 -16 -41 -29 -78 -29 -83 0 -4 -9
-26 -19 -50 -16 -34 -134 -345 -316 -832 -13 -33 -49 -127 -80 -210 -64 -170
-105 -279 -105 -283 0 -1 104 -1 231 0 l231 3 32 90 c18 50 52 146 76 215 24
69 47 130 52 137 11 13 755 16 764 2 3 -5 38 -107 79 -226 l73 -218 237 -3
237 -2 -5 22 c-2 13 -16 52 -29 88 -33 84 -119 317 -312 835 -86 231 -161 429
-166 440 -5 11 -32 83 -60 160 -28 77 -55 149 -59 160 -5 11 -21 54 -36 95
-15 41 -38 102 -50 135 -13 33 -27 73 -31 88 -3 16 -13 31 -20 34 -14 5 -429
10 -455 5z m257 -622 c15 -47 29 -87 29 -90 1 -3 5 -12 8 -20 12 -27 177 -515
177 -522 0 -4 -115 -7 -255 -7 -175 0 -255 4 -255 11 0 6 50 151 110 322 61
171 118 332 127 359 9 26 20 44 24 40 3 -5 19 -46 35 -93z"/>
<path d="M2287 3500 c-10 -4 -12 -227 -12 -1030 l0 -1025 215 0 215 0 0 712
c0 391 3 706 8 698 4 -8 43 -117 86 -242 44 -125 93 -266 109 -313 17 -47 83
-236 147 -420 64 -184 125 -357 135 -385 l18 -50 178 0 179 0 42 120 c22 66
78 226 123 355 44 129 92 267 105 305 13 39 58 169 100 290 42 121 87 250 99
287 12 37 25 70 28 73 3 3 5 -318 4 -715 l-1 -720 215 0 216 0 0 1030 0 1030
-23 1 c-13 0 -151 1 -308 1 -157 0 -291 -1 -299 -1 -8 -1 -18 -11 -21 -23 -10
-35 -252 -789 -386 -1203 -11 -33 -27 -82 -36 -110 -9 -27 -19 -53 -22 -57 -3
-4 -36 81 -73 190 -37 108 -130 384 -208 612 -78 228 -154 452 -169 498 -16
45 -31 85 -34 88 -7 8 -613 11 -630 4z"/>
<path d="M109 1155 c0 -14 -1 -38 -1 -55 0 -16 1 -39 1 -50 1 -20 8 -20 2286
-20 1257 0 2285 3 2286 8 1 10 1 115 0 130 -1 9 -465 12 -2286 12 l-2285 0 -1
-25z"/>
</g>
</svg>
